<?xml version="1.0" encoding="UTF-8"?>
<svg id="Layer_1" data-name="Layer 1" xmlns="http://www.w3.org/2000/svg" viewBox="0 0 886.4 891.89">
  <defs>
    <style>
      .cls-1 {
        fill: #e6c364;
      }
    </style>
  </defs>
  <path class="cls-1" d="M813.38,520.89h71.72c-35.6,210.31-218.66,370.46-439.11,370.46C200,891.35.59,691.94.59,445.95S200,.54,445.99.54c221.98,0,406.04,162.37,439.82,374.84h-71.56c-33.02-173.3-185.36-304.32-368.26-304.32-197.16,0-358.79,152.21-373.74,345.53h69.57c14.74-155,145.3-276.22,304.17-276.22,144.48,0,265.55,100.26,297.36,235.01h-72.48c-29.97-95.67-119.3-165.06-224.88-165.06-130.15,0-235.63,105.48-235.63,235.63s105.48,235.63,235.63,235.63c103.94,0,192.17-67.29,223.44-160.68h72.87c-33.4,132.53-153.39,230.64-296.31,230.64-158.84,0-289.38-121.19-304.14-276.17h-69.59c14.97,193.29,176.61,345.48,373.74,345.48,181.37,0,332.68-128.82,367.39-299.95Z"/>
</svg>