<?xml version="1.0" encoding="UTF-8"?>
<svg id="Layer_1" data-name="Layer 1" xmlns="http://www.w3.org/2000/svg" viewBox="0 0 800 800">
  <defs>
    <style>
      .cls-1 {
        fill: #443504;
        fill-rule: evenodd;
      }
    </style>
  </defs>
  <path class="cls-1" d="M682.18,116.26C607.31,41.33,507.74.04,401.67,0,183.09,0,5.21,177.82,5.12,396.39c-.03,69.87,18.23,138.07,52.93,198.18L1.79,800l210.22-55.12c57.92,31.58,123.13,48.22,189.5,48.25h.16c218.55,0,396.45-177.84,396.54-396.42.04-105.92-41.17-205.52-116.04-280.45M401.67,726.17h-.13c-59.14-.02-117.15-15.91-167.75-45.93l-12.04-7.14-124.74,32.71,33.3-121.59-7.84-12.47c-32.99-52.46-50.42-113.09-50.39-175.35.07-181.67,147.93-329.47,329.73-329.47,88.03.03,170.79,34.35,233.02,96.63s96.48,145.06,96.45,233.1c-.08,181.68-147.93,329.49-329.59,329.49M582.46,479.41c-9.91-4.96-58.62-28.92-67.71-32.23-9.08-3.31-15.69-4.96-22.29,4.96-6.6,9.92-25.59,32.23-31.37,38.84-5.78,6.61-11.56,7.44-21.47,2.48-9.91-4.96-41.83-15.42-79.68-49.16-29.45-26.26-49.34-58.7-55.12-68.62-5.78-9.92-.61-15.28,4.35-20.22,4.46-4.44,9.91-11.57,14.86-17.35,4.95-5.78,6.6-9.92,9.91-16.53,3.3-6.61,1.65-12.4-.83-17.35s-22.29-53.71-30.55-73.54c-8.04-19.31-16.21-16.7-22.29-17-5.77-.29-12.39-.35-18.99-.35s-17.34,2.48-26.42,12.39c-9.08,9.92-34.68,33.88-34.68,82.63s35.5,95.85,40.46,102.46c4.95,6.61,69.87,106.66,169.26,149.57,23.64,10.2,42.1,16.3,56.49,20.87,23.74,7.54,45.34,6.47,62.41,3.92,19.04-2.84,58.62-23.96,66.88-47.1,8.26-23.14,8.26-42.97,5.78-47.1-2.48-4.13-9.08-6.61-18.99-11.57"/>
</svg>