<?xml version="1.0" encoding="UTF-8"?>
<svg id="Layer_1" data-name="Layer 1" xmlns="http://www.w3.org/2000/svg" viewBox="0 0 534.74 475.68">
  <defs>
    <style>
      .cls-1 {
        fill: none;
        stroke: #e6c364;
        stroke-linecap: round;
        stroke-linejoin: round;
        stroke-width: 23px;
      }
    </style>
  </defs>
  <path class="cls-1" d="M153.2,11.5h232.85c-2.34,32.7,1.06,58.4,4.6,75.83,6.76,33.3,16.46,48.41,39.83,114.13,5.94,16.71,14.76,42.31,17.62,52.09,10.69,36.62,10.41,100.67-62.04,210.64h-232.85c-14.31-18.23-33.87-47.18-48.26-86.55-10.56-28.89-21.34-60.45-15.99-104.27,4.68-38.35,17.67-47.14,41.36-124.5,11.51-37.58,13.97-56.15,16-68.42,4.55-27.56,6.26-51.21,6.89-68.94Z"/>
  <path class="cls-1" d="M103.41,239.76s114.03,54.38,166.93,118.72c0,0,82.4-85.02,172.71-120.64"/>
  <line class="cls-1" x1="270.34" y1="460.35" x2="270.34" y2="358.48"/>
  <path class="cls-1" d="M118.78,183.86s152.38,76.61,296.38,0"/>
  <path class="cls-1" d="M367.67,157.8s-7.66-18.38-11.49-40.6"/>
  <polyline class="cls-1" points="61.29 52.1 100.35 93.46 11.5 93.46"/>
  <line class="cls-1" x1="61.29" y1="137.5" x2="100.35" y2="93.46"/>
  <polyline class="cls-1" points="473.46 52.1 434.39 93.46 523.24 93.46"/>
  <line class="cls-1" x1="473.46" y1="137.5" x2="434.39" y2="93.46"/>
  <circle class="cls-1" cx="350.99" cy="74.31" r=".51"/>
</svg>