<?xml version="1.0" encoding="UTF-8"?>
<svg id="Layer_1" data-name="Layer 1" xmlns="http://www.w3.org/2000/svg" viewBox="0 0 734.46 747.46">
  <defs>
    <style>
      .cls-1 {
        stroke-dasharray: 67.78 67.78;
      }

      .cls-1, .cls-2, .cls-3 {
        stroke: #e6c364;
        stroke-linecap: round;
        stroke-linejoin: round;
        stroke-width: 23px;
      }

      .cls-1, .cls-3 {
        fill: none;
      }

      .cls-2 {
        fill: #e6c364;
      }
    </style>
  </defs>
  <path class="cls-3" d="M42.75,374.84c74.1-28.16,130.04-90.84,201.49-125.17,94.59-45.45,213.84-34.34,298.41,27.79,50.26,36.92,89.06,90.17,145.71,116.23"/>
  <path class="cls-3" d="M97.72,408.74c61.05,81.66,158.11,135.34,259.73,143.66,101.62,8.31,206.11-28.88,279.63-99.53"/>
  <path class="cls-3" d="M90.34,269.58c54.7-43.49,111.77-88.17,179.73-104.42,32.54-7.78,66.37-8.67,99.78-6.96,45.42,2.32,90.85,9.44,133.71,24.64,42.86,15.2,83.18,38.71,115.04,71.16"/>
  <path class="cls-3" d="M57.39,216.52c3.11,42.3,29.58,82.14,67.37,101.4"/>
  <path class="cls-3" d="M124.92,170.51c-1.85,42.74,23.32,85.47,61.6,104.58"/>
  <g>
    <polyline class="cls-3" points="80.89 183.31 79.24 41.87 124.76 80.77"/>
    <line class="cls-3" x1="32.44" y1="78.05" x2="79.24" y2="41.87"/>
  </g>
  <g>
    <polyline class="cls-3" points="654.04 570.84 655.7 712.28 610.18 673.38"/>
    <line class="cls-3" x1="702.5" y1="676.1" x2="655.7" y2="712.28"/>
  </g>
  <path class="cls-3" d="M236.73,246.72c-27.06-23.97-44.49-58.53-47.68-94.54"/>
  <path class="cls-3" d="M305.54,228.98c-26.79-25.21-43.77-60.58-46.68-97.25"/>
  <path class="cls-3" d="M259.7,245.88c-18.38,23.98-37.16,48.75-45.19,77.87-7.59,27.54-4.78,57.5,5.94,83.98,10.72,26.48,29.07,49.55,51.22,67.6,26.34,21.47,58.76,36.22,92.67,38.49,61.5,4.11,122.45-36.34,145.73-93.41,23.29-57.07,9.33-126.55-31.62-172.62"/>
  <path class="cls-2" d="M314.13,334.22c-8.58,22.47-1.19,50.05,17.47,65.22,18.66,15.17,47.17,16.78,67.41,3.8,20.24-12.98,30.68-39.56,24.69-62.84-13.62-52.88-90.07-57.22-109.56-6.18Z"/>
  <g>
    <path class="cls-3" d="M72.71,489.21c7.39,8.39,15.16,16.42,23.27,24.08"/>
    <path class="cls-1" d="M149.15,555.19c65.99,43.19,145.18,66.7,224.24,66.61,90.46-.1,179.84-30.21,254.29-81.77"/>
    <path class="cls-3" d="M654.83,519.75c8.7-7.01,17.15-14.32,25.31-21.94"/>
  </g>
</svg>