<?xml version="1.0" encoding="UTF-8"?>
<svg id="Layer_1" data-name="Layer 1" xmlns="http://www.w3.org/2000/svg" viewBox="0 0 734.46 747.46">
  <defs>
    <style>
      .cls-1 {
        stroke-dasharray: 12;
      }

      .cls-1, .cls-2, .cls-3 {
        fill: none;
        stroke: #e6c364;
        stroke-linecap: round;
        stroke-linejoin: round;
        stroke-width: 23px;
      }

      .cls-3 {
        stroke-dasharray: 21 44;
      }
    </style>
  </defs>
  <path class="cls-2" d="M544.64,70.25c-10.69,33.93,2.58,74,31.41,94.84,15.29,11.05,33.74,16.72,50.41,25.57,54.45,28.91,86.37,95.03,75.13,155.65"/>
  <path class="cls-2" d="M435.82,63.6c1.92,28.9,3.2,60.26-13.17,84.15-11.4,16.63-30.06,27.17-49.47,32.62-19.41,5.45-39.77,6.32-59.91,7.16"/>
  <path class="cls-2" d="M269.32,195.63c-79.79,12.8-159.58,25.61-239.37,38.41"/>
  <path class="cls-2" d="M31.01,329.03c48.32-.24,94.9,16.28,141.21,30.09,46.31,13.81,95.47,25.14,142.59,14.43"/>
  <path class="cls-2" d="M368.35,262.61c3.04,19.34-4.83,38.7-14.2,55.89-9.37,17.19-20.58,33.83-25.14,52.87-6.33,26.42,1.69,55.82,20.56,75.36s47.98,28.58,74.6,23.18c26.62-5.41,49.89-25.09,59.64-50.45"/>
  <path class="cls-2" d="M490.38,375.74c-6.95,29.27,4.38,62.09,27.91,80.84,23.53,18.75,58.04,22.48,85.03,9.19s45.07-42.93,44.54-73.01c-.33-18.74-7.2-36.67-13.97-54.14-8.78-22.65-17.56-45.3-26.34-67.95"/>
  <path class="cls-2" d="M617.93,462.9c1.93,12.95,3.85,25.91,5.78,38.86"/>
  <path class="cls-2" d="M635.85,542.46c15.02,44.92,30.05,89.84,45.07,134.76"/>
  <path class="cls-2" d="M361.45,461.81c.65,41.42-14.12,81.34-28.68,120.13-11.58,30.84-23.16,61.69-34.74,92.53"/>
  <path class="cls-2" d="M474.54,623.2c.96-8.03,8.67-14.67,16.76-14.42,8.09.25,15.38,7.34,15.85,15.42"/>
  <path class="cls-3" d="M118.98,335.33c80.04.67,160.15-7.83,238.26-25.27"/>
  <circle class="cls-1" cx="380.41" cy="428.11" r="1.79"/>
  <circle class="cls-1" cx="599.31" cy="428.11" r="2.55"/>
</svg>