<?xml version="1.0" encoding="UTF-8"?>
<svg id="Layer_1" data-name="Layer 1" xmlns="http://www.w3.org/2000/svg" viewBox="0 0 734.46 747.46">
  <defs>
    <style>
      .cls-1, .cls-2 {
        fill: none;
        stroke: #e6c364;
        stroke-linecap: round;
        stroke-linejoin: round;
        stroke-width: 23px;
      }

      .cls-2 {
        stroke-dasharray: 21 44;
      }
    </style>
  </defs>
  <path class="cls-1" d="M149.89,46.55h434.04c-8.73,16.89-20.93,46.39-20.43,83.74.26,19.48,3.94,38.66,15.32,69.45,20.9,56.55,42.84,84.86,56.17,110.3,45.49,86.78,16.81,189.81,0,250.21-9.68,34.77-28.74,87.78-68.43,145.02h-175.66c-.68-100.77-1.36-201.53-2.04-302.3"/>
  <path class="cls-1" d="M341.89,402.97v302.3h-172.6c-25.15-35.41-60.73-95.63-77.62-177.7-6.83-33.17-20.09-101.34,0-185.87,6.91-29.1,36.45-89.32,50.04-119.49,13.97-30.99,19.91-42.42,23.49-61.28,8.67-45.71-5.75-86.79-19.4-114.38"/>
  <path class="cls-1" d="M272.44,317.19c20.43,22.47,40.85,44.94,61.28,67.4,1.66,2.3,11.16,14.98,28.6,17.36,21.05,2.87,35.35-11.78,36.77-13.28,20.08-23.83,40.17-47.66,60.26-71.49"/>
  <path class="cls-1" d="M367.23,152.76c-11.85.06-18.48,10.07-19.22,11.23-4.86,7.62-5.57,18.32,0,26.55,6.16,9.11,16.55,10.11,17.87,10.21.81.06,14.77.98,21.96-10.21,7.08-11.03.74-23.15,0-24.51-.67-1.24-7.54-13.34-20.61-13.28Z"/>
  <path class="cls-2" d="M545.12,646.04c18.5-26.66,49.28-78.49,61.28-151.15,12.24-74.14-.99-134.18-10.21-165.45"/>
  <path class="cls-2" d="M188.69,646.04c-18.96-30.63-48.33-87.02-58.21-163.71-8.75-67.87,1.4-123.5,10.21-156.98"/>
</svg>