<?xml version="1.0" encoding="UTF-8"?>
<svg id="Layer_1" data-name="Layer 1" xmlns="http://www.w3.org/2000/svg" viewBox="0 0 734.46 747.46">
  <defs>
    <style>
      .cls-1 {
        fill: none;
        stroke: #e6c364;
        stroke-linecap: round;
        stroke-linejoin: round;
        stroke-width: 23px;
      }
    </style>
  </defs>
  <path class="cls-1" d="M293.01,39.94h164.43c-1.69,8.85-6.78,41.4,12.26,74.55,15.03,26.17,36.96,38.53,45.96,42.98,35.4,7.46,70.81,14.92,106.21,22.38,8.61,2.01,27.48,7.7,43.91,24.51,25.21,25.79,25.61,58.24,25.53,65.22-12.6,149.84-25.19,299.67-37.79,449.51H99.99c-12.94-154.21-25.87-308.43-38.81-462.64-.43-3.95-3.34-36.1,21.45-60.26,22.4-21.83,50.55-20.69,55.15-20.43,38.47-9.53,71.83-12.94,110.3-22.47,8.13-3.61,27.57-3.06,39.83-48,11.91-43.66,6.62-60.34,5.11-65.36Z"/>
  <line class="cls-1" x1="376.08" y1="248.28" x2="374.59" y2="555.51"/>
  <polyline class="cls-1" points="591.22 354.49 527.9 621.81 548.33 712.28"/>
  <polyline class="cls-1" points="158.2 354.49 222.54 621.81 201.09 712.28"/>
</svg>