<?xml version="1.0" encoding="UTF-8"?>
<svg id="Layer_1" data-name="Layer 1" xmlns="http://www.w3.org/2000/svg" viewBox="0 0 518.34 527.51">
  <defs>
    <style>
      .cls-1 {
        stroke-dasharray: 14;
        stroke-width: 9px;
      }

      .cls-1, .cls-2 {
        fill: none;
        stroke: #e6c364;
        stroke-linecap: round;
        stroke-linejoin: round;
      }

      .cls-2 {
        stroke-width: 23px;
      }
    </style>
  </defs>
  <path class="cls-2" d="M486.48,25.93c-7.98,63.83-25.46,126.44-51.67,185.09"/>
  <path class="cls-2" d="M429.5,248.14c-11.47,41.73,2.57,85.78,16.53,126.73,13.96,40.95,28.12,84.93,16.86,126.72"/>
  <path class="cls-2" d="M31.86,28.05c5.88,27,11.76,54,17.65,81"/>
  <path class="cls-2" d="M59.35,143.37c18.86,23.12,25.18,53.81,30.9,83.18,4,20.53,8.02,41.24,7.8,62.17-.22,20.93-4.99,42.35-17.13,59.33"/>
  <path class="cls-2" d="M64.82,381.55c-8.98,36.6-10.87,74.96-5.54,112.28"/>
  <path class="cls-2" d="M124.92,200.6c24.5,12.26,54.27,13.3,79.55,2.78,25.29-10.52,45.66-32.42,54.47-58.53,11.25,27.08,34.76,48.69,62.54,57.49,27.78,8.81,59.32,4.65,83.92-11.07"/>
  <path class="cls-2" d="M260.61,256.13c.74,55,1.48,110,2.23,165"/>
  <path class="cls-2" d="M180.41,283.44c9.8.99,14.93,11.98,22.71,18.09,7.77,6.09,18.62,7.15,28.11,4.55,9.49-2.6,17.81-8.47,25.1-15.13"/>
  <path class="cls-2" d="M180.41,354.89c9.8.99,14.93,11.98,22.71,18.09,7.77,6.09,18.62,7.15,28.11,4.55s17.81-8.47,25.1-15.13"/>
  <path class="cls-2" d="M180.41,417.81c9.8.99,14.93,11.98,22.71,18.09,7.77,6.09,18.62,7.15,28.11,4.55,9.49-2.6,17.81-8.47,25.1-15.13"/>
  <path class="cls-2" d="M347.37,283.44c-9.8.99-14.93,11.98-22.71,18.09-7.77,6.09-18.62,7.15-28.11,4.55-9.49-2.6-17.81-8.47-25.1-15.13"/>
  <path class="cls-2" d="M347.37,354.89c-9.8.99-14.93,11.98-22.71,18.09-7.77,6.09-18.62,7.15-28.11,4.55-9.49-2.6-17.81-8.47-25.1-15.13"/>
  <path class="cls-2" d="M347.37,417.81c-9.8.99-14.93,11.98-22.71,18.09-7.77,6.09-18.62,7.15-28.11,4.55s-17.81-8.47-25.1-15.13"/>
  <path class="cls-1" d="M261.11,47.5c-.81,34.67-1.63,69.33-2.44,104"/>
  <path class="cls-1" d="M456.73,61.55c-18.02,10.59-27.46,31.18-35.04,50.77-7.58,19.59-15.1,40.49-31.26,53.78-14.58,11.99-34.39,15.93-53.17,14.7-18.78-1.23-36.9-7.15-54.79-13.02"/>
  <path class="cls-1" d="M70.59,62.76c16.24,10.71,24.83,29.73,31.75,48,6.93,18.28,13.52,37.62,27.61,51.07,14.4,13.75,35.03,19.37,54.86,19.01s39.15-6.16,57.89-12.7"/>
</svg>