<?xml version="1.0" encoding="UTF-8"?>
<svg id="Layer_1" data-name="Layer 1" xmlns="http://www.w3.org/2000/svg" viewBox="0 0 734.46 747.46">
  <defs>
    <style>
      .cls-1 {
        stroke-width: 23px;
      }

      .cls-1, .cls-2, .cls-3 {
        fill: none;
        stroke: #e6c364;
        stroke-linecap: round;
        stroke-linejoin: round;
      }

      .cls-2 {
        stroke-width: 11px;
      }

      .cls-3 {
        stroke-dasharray: 11 28;
        stroke-width: 16px;
      }
    </style>
  </defs>
  <path class="cls-1" d="M139.39,335.94c-7.34-25.85-19.34-81.97,0-147.06,4.9-16.5,15.08-49.59,41.87-81.7C251.96,22.42,368.9,27.71,382.46,28.54c29,1.76,96.32,10.84,155.23,64.34,17.65,16.02,58.06,53.31,72.49,117.45,13.18,58.59-2.7,106.56-10.19,125.62,6.76.52,28.34,3.04,45.96,20.43,1.98,1.96,29.44,29.99,19.4,65.36-7.34,25.85-29.52,37.37-32.41,38.81-13.36,6.67-25.83,6.82-32.01,6.48-5.79,22.67-15.53,52.25-32.6,84.42-14.44,27.22-46.73,86.35-114.38,129.7-30.87,19.78-59.53,30.15-78.64,35.74-21.6-4.68-54.48-14.47-88.85-36.77-54.33-35.24-81.19-81.51-98.04-111.32-12.46-22.04-28.34-55.34-38.81-99.06-4.14,1.14-28.43,7.4-52.08-7.15-26.18-16.09-30.09-44.44-30.64-49.02-3.6-29.89,14.2-50.58,17.36-54.13,21.41-24,50.96-23.62,55.15-23.49Z"/>
  <path class="cls-1" d="M217.01,383.94c1.83,2.44,19,24.51,49.02,24.51,30.03,0,47.19-22.07,49.02-24.51"/>
  <path class="cls-1" d="M425.35,383.94c1.53,2.26,16.49,23.51,43.92,24.51,29.95,1.1,46.95-22.97,48-24.51"/>
  <path class="cls-1" d="M301.77,543.26c2.7,6.33,8.05,16.35,18.38,24.51,18.51,14.63,40.24,13.22,55.15,12.26,13.39-.87,33.84-2.19,50.04-17.72,6.99-6.69,10.99-13.92,13.28-19.05"/>
  <g>
    <polyline class="cls-2" points="264.33 270.27 262.86 196.5 286.77 216.59"/>
    <line class="cls-2" x1="238.6" y1="215.57" x2="262.86" y2="196.5"/>
  </g>
  <g>
    <polyline class="cls-2" points="476.65 270.27 475.18 196.5 499.1 216.59"/>
    <line class="cls-2" x1="450.92" y1="215.57" x2="475.18" y2="196.5"/>
  </g>
  <path class="cls-3" d="M173.2,359.33c23.84-22.47,49.32-45.85,81.29-53.01,36.85-8.25,78.02,9.01,97.96,41.08"/>
  <path class="cls-3" d="M577.23,367.92c-18.45-31.65-52.37-53.78-88.78-57.91s-74.42,9.82-99.5,36.53"/>
  <path class="cls-3" d="M217.48,549.7c68.23-21.08,123.29-80.25,139.41-149.82"/>
  <path class="cls-3" d="M529.46,549.81c-70.01-20.8-127.76-78.81-148.23-148.91"/>
  <path class="cls-3" d="M373.46,614.24c-.15,32.42-.3,64.84-.45,97.27"/>
</svg>