<?xml version="1.0" encoding="UTF-8"?>
<svg id="Layer_1" data-name="Layer 1" xmlns="http://www.w3.org/2000/svg" viewBox="0 0 644.31 771.6">
  <defs>
    <style>
      .cls-1, .cls-2, .cls-3 {
        fill: none;
        stroke: #e6c364;
        stroke-linecap: round;
        stroke-width: 23px;
      }

      .cls-1, .cls-3 {
        stroke-miterlimit: 10;
      }

      .cls-2 {
        stroke-linejoin: round;
      }

      .cls-3 {
        stroke-dasharray: 42;
      }
    </style>
  </defs>
  <path class="cls-1" d="M549.79,21.66c.71,10.48,2.43,25.9,7.15,43.91,8.58,32.79,19.31,44.55,32.68,75.57,12.8,29.69,24.09,55.88,23.49,89.87-.3,16.72-3.72,49.64-25.53,81.7-19.89,29.24-44.97,42.91-62.3,52.09-27.03,14.32-53.06,19.76-107.23,24.42-38.85,3.34-90.16,5.97-151.15,4.18"/>
  <path class="cls-1" d="M93.28,21.66c.87,12.51.85,31.49-5.11,53.11-9.05,32.87-23.95,43.31-38.81,75.57-4.85,10.53-20.52,44.55-19.4,82.72,1.73,59.3,41.29,98.63,48,105.19,27.78,27.19,58.99,36.7,76.6,41.87,14.31,4.2,35.64,8.9,62.3,9.1"/>
  <path class="cls-3" d="M137.88,11.5c8.28,24.54,17.86,62.2,16.85,108.26-1.14,52.41-15.47,92.03-31.36,134.81-26.49,71.37-52.21,104.72-69.57,164.52,0,0,4.22,1.53,2.89,53.77-3.15,123.64,66.14,250.88,98.12,287.23"/>
  <path class="cls-3" d="M508.61,11.5c-9.97,30.45-20.65,76.49-15.32,131.24,3.66,37.58,16.28,71.53,41.36,137.87,53.86,142.46,50.56,120.04,52.36,125.52,20.55,62.64,20.26,184.65-95.14,353.97"/>
  <path class="cls-1" d="M569.88,749.38c17.16-36.13,45.69-108.63,43.25-203.74-2.29-89.24-30.77-156.64-48.7-191.83"/>
  <path class="cls-1" d="M78.65,753.46c-17.81-40.87-45.91-120.04-41.87-222.64,3.94-100.21,36.68-175.49,57.19-214.81"/>
  <path class="cls-1" d="M45.88,489.22c53.64-2.06,83.05,9.81,106.3,19.13,22.17,8.89,38.65,19.1,64.67,35.23,36.01,22.32,64.02,43.25,82.9,58.21,1.97,1.61,10.62,8.32,23.34,7.66,12.89-.67,20.87-8.42,22.62-10.21,29.79-20.09,59.57-40.17,89.36-60.26"/>
  <path class="cls-1" d="M482.05,510.4c18.07-6.72,39.39-13.31,63.66-18.38,21.13-4.42,40.62-6.89,57.87-8.17"/>
  <path class="cls-1" d="M348.61,760.1l-25.51-74.04v-69.11"/>
  <path class="cls-1" d="M298.22,756.19c3.28-6.03,6.64-12.82,9.84-20.36,0,0,3.09-7.29,5.44-14.09,6.55-18.99,8.87-41.2,9.6-49.29"/>
  <path class="cls-1" d="M323.1,278.23s-.32,14.98,0,17.7"/>
  <line class="cls-1" x1="11.5" y1="198.66" x2="93.97" y2="207.83"/>
  <polyline class="cls-2" points="78.99 178.15 99.41 207.83 71.84 231.93"/>
  <line class="cls-1" x1="632.81" y1="192.27" x2="550.35" y2="201.44"/>
  <polyline class="cls-2" points="565.33 171.76 544.9 201.44 572.47 225.55"/>
</svg>