<?xml version="1.0" encoding="UTF-8"?>
<svg id="Layer_1" data-name="Layer 1" xmlns="http://www.w3.org/2000/svg" viewBox="0 0 518.34 527.51">
  <defs>
    <style>
      .cls-1 {
        stroke-width: 23px;
      }

      .cls-1, .cls-2, .cls-3 {
        fill: none;
        stroke: #e6c364;
        stroke-linecap: round;
        stroke-linejoin: round;
      }

      .cls-2 {
        stroke-dasharray: 29;
        stroke-width: 19px;
      }

      .cls-3 {
        stroke-width: 11px;
      }
    </style>
  </defs>
  <path class="cls-1" d="M208.12,14.94c2.79,25.01-7.45,51.12-26.51,67.55"/>
  <path class="cls-1" d="M152.99,100.64c-18.08,4.76-32.54,14.16-30.7,32.77,1.83,18.61,17.33,46.12,31.23,58.63"/>
  <path class="cls-1" d="M160,158.13c7.91-3.44,17.08-.96,25.05,2.32,7.98,3.28,16.02,7.39,24.64,7.13,8.62-.26,17.82-7.03,16.95-15.61-.8-10.74-6.55-21.01-15.3-27.29"/>
  <path class="cls-1" d="M156.75,237.83c12.67-.09,25.35,1.03,37.82,3.33,6.72,1.24,27.7,10.44,32.43,6.08-11.5-17.86-33.5-32.88-51.48-43.65-3.85-2.31-7.85-4.52-12.25-5.44-10.85-2.26-22.82,4.93-25.91,15.57-3.09,10.64,3.16,23.13,13.52,27.04-7.3,1.66-11.22,10.75-8.88,17.86,2.34,7.11,9.42,11.89,16.77,13.31s14.95.02,22.17-1.95c14.52-3.96,28.42-10.22,43.59-20.71"/>
  <path class="cls-1" d="M166.33,279.49c4.39,27.39,9.36,56.13,26.71,77.77,19.44,24.25,51.68,35.33,82.75,36.16s61.59-7.32,91.59-15.4"/>
  <path class="cls-1" d="M398.3,364.41c13.48-8.25,26.97-16.5,40.45-24.75"/>
  <path class="cls-1" d="M318.67,392.9c8.74,14.52,17.47,29.04,26.21,43.56"/>
  <path class="cls-1" d="M362.45,513.27c2.54-14.32,1.14-29.32-4.01-42.92"/>
  <path class="cls-2" d="M163.73,284.59c-10.39,21.47-15.94,46.11-10.72,69.38,5.22,23.27,22.73,44.55,45.99,49.83,10.48,2.38,21.42,1.51,32.08.15,18.45-2.35,36.71-6.13,54.57-11.29"/>
  <g>
    <polyline class="cls-3" points="162.32 421.62 126.52 466.73 122.13 442.75"/>
    <line class="cls-3" x1="150.6" y1="467.31" x2="126.52" y2="466.73"/>
  </g>
  <polyline class="cls-3" points="122.02 363.99 64.45 365.36 80.07 346.64"/>
  <line class="cls-3" x1="79.41" y1="384.23" x2="64.45" y2="365.36"/>
</svg>