<?xml version="1.0" encoding="UTF-8"?>
<svg id="Layer_1" data-name="Layer 1" xmlns="http://www.w3.org/2000/svg" viewBox="0 0 518.34 527.51">
  <defs>
    <style>
      .cls-1 {
        stroke-dasharray: 14 20;
      }

      .cls-1, .cls-2 {
        stroke-width: 11px;
      }

      .cls-1, .cls-2, .cls-3 {
        fill: none;
        stroke: #e6c364;
        stroke-linecap: round;
        stroke-linejoin: round;
      }

      .cls-2 {
        stroke-dasharray: 16 20;
      }

      .cls-3 {
        stroke-width: 23px;
      }
    </style>
  </defs>
  <path class="cls-2" d="M159.72,15.59c37.1,5.35,74.18,12.88,108.75,27.34,47.95,20.05,90.23,53.45,120.86,95.44,30.62,41.99,49.5,92.46,53.94,144.24"/>
  <path class="cls-1" d="M89.06,440.97c71.65,37.86,163.29,34.67,232.13-8.08"/>
  <path class="cls-3" d="M136.81,202.78v-63.96c2.92-14.09,10.96-43.14,35.25-69.61,6.52-7.1,48.42-51.22,113.67-46.7,47.97,3.32,85.72,31.35,106.62,62.56,32.66,48.78,22.28,102.5,15.86,135.7-3.19,16.51-18.99,88.6-73.14,137.46-12.84,11.59-24.76,19.09-37.01,38.13-18.69,29.05-11.36,43.29-29.96,70.95-7.65,11.37-23.57,35.06-51.99,40.72-4.96.99-33.05,6.27-56.39-13.22-26.1-21.8-23.22-55.28-22.92-58.16-.08-57.86-.16-115.73-.24-173.59"/>
  <path class="cls-3" d="M205.13,138.82c12.54-24.12,36.99-39.22,62.98-38.78,28.61.49,48.26,21.89,53.09,27.11,7.55,8.16,12.1,16.3,14.76,21.94"/>
  <path class="cls-3" d="M281.32,168.75c-.4-3.43-2.78-20.97-18.5-33.46-14.08-11.19-29.54-10.92-33.49-10.73"/>
  <path class="cls-3" d="M187.92,164.96c-2.95,10.29-5.72,23.04-7.05,37.81-1.25,13.92-.92,26.28,0,36.49,18.02,3.62,31.43,18.91,32.6,37.01,1.22,18.69-10.88,36.02-29.08,41.42-1.45,22.91-2.9,45.82-4.34,68.73,1.83,13.71,12.8,23.95,25.08,24.67,14.56.86,28.47-11.8,28.61-28.52"/>
</svg>