<?xml version="1.0" encoding="UTF-8"?>
<svg id="Layer_1" data-name="Layer 1" xmlns="http://www.w3.org/2000/svg" viewBox="0 0 518.34 527.51">
  <defs>
    <style>
      .cls-1 {
        stroke-width: 23px;
      }

      .cls-1, .cls-2, .cls-3 {
        fill: none;
        stroke: #e6c364;
        stroke-linecap: round;
        stroke-linejoin: round;
      }

      .cls-2, .cls-3 {
        stroke-width: 11px;
      }

      .cls-3 {
        stroke-dasharray: 24;
      }
    </style>
  </defs>
  <path class="cls-1" d="M188.35,17.76l4.51,145.11s1.65,29.39-13.54,49.91c-49.16,66.39-65.01,97.51-65.01,97.51h0"/>
  <path class="cls-1" d="M63.75,394.26c-2.75,6.7-14.33,37.04,0,67.72,21.19,45.35,78.21,46.91,82.16,46.95,28.33.31,49.23-12.22,57.78-18.06"/>
  <path class="cls-1" d="M461.02,394.26c2.73,7.07,12.5,34.77,0,64.1-18.09,42.46-66.35,49.67-73.13,50.57-36.38,4.82-63.81-12.85-71.33-18.06"/>
  <path class="cls-1" d="M147.72,466.49c20.66-6.52,33.65-3.61,41.53,0,15.87,7.26,15.95,19.56,36.12,31.6,6.18,3.69,19.55,11.67,36.28,10.84,16.93-.84,29.63-10.34,46.79-23.16,18.39-13.74,21.59-21.2,33.41-23.16,12.03-1.99,23.07,3.36,30.7,8.39"/>
  <path class="cls-1" d="M370.13,238.54c10.61,14.15,17.68,27.11,27.11,42.44,5.89,9.43,8.25,20.04,14.82,29.32"/>
  <path class="cls-1" d="M335.91,91.82c-1.15,31.19-3.5,63.02-2.32,93.67,1.18,7.07,35.42,49.26,38.96,56.33"/>
  <path class="cls-1" d="M338.02,17.76c.28,9.78-2.08,20.39-.94,30.17"/>
  <g>
    <polyline class="cls-2" points="51.11 322.93 94.45 360.85 94.45 336.47"/>
    <line class="cls-2" x1="70.87" y1="365.77" x2="94.45" y2="360.85"/>
  </g>
  <g>
    <polyline class="cls-2" points="467.23 326.44 423.89 364.36 423.89 339.99"/>
    <line class="cls-2" x1="447.47" y1="369.28" x2="423.89" y2="364.36"/>
  </g>
  <path class="cls-3" d="M193.36,205.76c-5,53.76-21.44,89.78-36.12,113.16-15.14,24.12-33.33,42.62-46.35,81.86-12.12,36.56-7.19,53.23-5.42,58.39,10.66,31.06,43.53,43.63,51.16,46.35"/>
  <path class="cls-3" d="M330.6,205.76c6.86,77.15,27.79,117.21,46.35,139.65,3.44,4.16,21.97,26.06,35.11,59.59,11.46,29.26,9.15,42.69,8.23,47.01-6.11,28.47-34.16,42.99-40.93,46.28"/>
</svg>